<svg fill="none" height="36" viewBox="0 0 208 36" width="208" xmlns="http://www.w3.org/2000/svg"><g fill="#fff"><path d="m40.0781 1.42686c-2.0307.95096-3.3395 3.02798-3.3395 5.42199v20.60405c0 2.3873 1.3088 4.471 3.3395 5.4219v.0887h-13.8119v-.0887c2.1193-.9509 3.386-3.0346 3.386-5.4219v-19.38266l-11.5531 25.56716h-.0908l-11.37365-25.66026v19.47576c0 2.3873 1.26448 4.471 3.38815 5.4219v.0887h-10.0228v-.0887c2.12149-.9509 3.38154-3.0346 3.38154-5.4219v-20.60405c0-2.39401-1.26005-4.47103-3.38154-5.42199v-.08866h11.8719l8.5724 19.653 8.6675-19.653h10.9663z"/><path d="m54.6975 24.2258c0-3.3668-.5824-6.28-1.7118-8.6973-1.1272-2.4598-2.394-3.6908-3.7913-3.6908-1.6233 0-3.1092 2.6474-3.1092 7.2005 0 3.3668.5824 6.2801 1.7074 8.7443 1.1294 2.4062 2.3939 3.6416 3.7935 3.6416 1.6277 0 3.1114-2.6429 3.1114-7.1983zm-11.5023 6.4164c-2.2168-1.8141-3.7935-5.0982-3.7935-8.9677 0-3.6863 1.1272-6.5593 3.3439-8.6929 2.2079-2.1448 4.7347-3.18808 7.5782-3.18808 2.3917 0 5.0558 1.00088 7.2659 2.81948 2.2145 1.8252 3.7957 5.1071 3.7957 8.9721 0 3.6863-1.1294 6.5571-3.3927 8.6974-2.2079 2.1358-4.7346 3.1858-7.5803 3.1858-2.3917 0-5.0093-1.0053-7.2172-2.8261z"/><path d="m73.5307 19.0438c.1335-4.1203-.9081-6.7507-3.0358-6.7507h-.0912v15.1401c0 2.8973.2737 4.347 2.4014 5.4388v.0889h-11.2506v-.0889c2.1322-1.0918 2.4082-2.5415 2.4082-5.4388v-11.6025c0-2.8995-.276-4.3537-2.4082-5.4388v-.0911h10.5251c3.8103 0 6.303 1.4053 6.8928 5.7523z"/><path d="m92.1141 30.9705v-18.6119h-1.2686c-1.6825 0-2.9466.4522-3.8101 1.31-.8635.86-1.2685 2.6664-1.2685 5.3728 0 3.3447.5875 6.1928 1.8116 8.498 1.224 2.2985 2.7196 3.4311 4.4466 3.4311zm6.4407-3.5198c0 2.8881.2737 4.3333 2.4012 5.4216v.0887h-10.5177c-6.8502 0-11.2968-3.573-11.2968-10.6193 0-4.0185 1.5423-7.361 3.9036-9.1696 2.3568-1.8486 5.1231-2.7995 8.023-2.7995h1.046v-3.52419c0-2.89253-.276-4.33325-2.4058-5.42155v-.08866h8.8465z"/><path d="m106.525 1c1.984 0 3.598 1.58363 3.598 3.43564 0 1.94294-1.614 3.48221-3.598 3.48221-1.976 0-3.596-1.53927-3.596-3.48221 0-1.85201 1.62-3.43564 3.596-3.43564zm-5.4 31.961v-.0887c2.117-1.0891 2.387-2.5352 2.387-5.4252v-11.5734c0-2.8922-.27-4.3428-2.387-5.4251v-.091h8.775v17.0895c0 2.89.269 4.3361 2.386 5.4252v.0887z"/><path d="m114.109 32.1926-.545-9.1955h.047c1.088 1.8699 1.818 2.9557 3.458 4.8301 1.686 1.861 3.868 2.958 6.236 2.958 2.051 0 3.373-.9629 3.373-2.5536 0-.9071-.456-1.6354-1.369-2.1381-.909-.5049-2.591-1.1796-5.006-2.0486-5.236-1.8231-6.833-3.7332-6.833-7.1492 0-2.3234.822-4.0928 2.504-5.2814 1.689-1.2287 3.69-1.82078 6.009-1.82078 1.825 0 4.416.45348 7.74 1.32258l.368 7.4619h-.091c-2.868-4.1398-5.737-6.1907-8.654-6.1907-1.865 0-3.279.9115-3.279 2.3212 0 .5921.232 1.0501.637 1.4589.46.4111.96.7283 1.552.9562.594.2257 1.546.5965 2.964 1.0925.179.0469.313.0894.407.1385 5.097 1.6823 7.599 3.7332 7.599 7.8775 0 2.4597-.815 4.2783-2.502 5.4646-1.639 1.184-3.596 1.7716-5.868 1.7716-1.691 0-4.604-.4088-8.747-1.2757z"/><path d="m135.578 30.3104c-1.999-2.0415-2.999-4.8479-2.999-8.5216 0-3.6693 1.09-6.5313 3.271-8.6551 2.182-2.1326 4.635-3.17111 7.356-3.17111 3.274 0 6.276 1.85461 7.865 5.29491l-7.227 3.5847-.087-.0444c.405-1.361.405-2.7665.044-4.2586-.32-1.4966-.913-2.2238-1.682-2.2238-1.634 0-2.951 2.2705-2.951 6.7514 0 3.1311.636 5.4417 1.863 6.9339 1.222 1.501 2.679 2.2238 4.353 2.2238 2.094 0 4.098-.9541 6.041-2.8065l.094.0445c-.676 2.0392-1.814 3.8961-3.41 5.4817-1.542 1.5878-3.398 2.355-5.582 2.355-2.585 0-4.905-.9985-6.949-2.9888z"/><path d="m167.615 24.2258c0-3.3668-.591-6.28-1.725-8.6973-1.14-2.4598-2.412-3.6908-3.813-3.6908-1.638 0-3.149 2.6474-3.149 7.2005 0 3.3668.602 6.2801 1.729 8.7443 1.136 2.4062 2.408 3.6416 3.823 3.6416 1.634 0 3.135-2.6429 3.135-7.1983zm-11.597 6.4164c-2.225-1.8141-3.823-5.0982-3.823-8.9677 0-3.6863 1.143-6.5593 3.37-8.6929 2.231-2.1448 4.773-3.18808 7.639-3.18808 2.412 0 5.094 1.00088 7.326 2.81948 2.229 1.8252 3.818 5.1071 3.818 8.9721 0 3.6863-1.136 6.5571-3.414 8.6974-2.227 2.1358-4.769 3.1858-7.634 3.1858-2.413 0-5.048-1.0053-7.282-2.8261z"/><path d="m198.303 25.1821h-1.802v1.1838h1.71c.46 0 .801-.0163 1.042-.0583.483-.0559.63-.2074.63-.5196v-.028c0-.1678-.047-.2959-.147-.3751-.177-.1678-.61-.2028-1.433-.2028z"/><path d="m200.95 26.8012c-.442.4851-1.302.6721-2.56.6721h-3.202v-5.6871h3.144c1.895 0 2.807.3512 2.807 1.4957v.0454c0 .7378-.356 1.0612-1.17 1.2153.918.1263 1.317.4421 1.317 1.2531v.0278c0 .4143-.116.7478-.336.9777zm-6.866-7.1928c-.543.7655-1.493 1.2101-2.949 1.2101-.664 0-1.246-.1086-1.751-.3031-1.006-.4093-1.584-1.2557-1.584-2.6478v-.0328c0-.6392.146-1.185.449-1.6321.597-.8995 1.671-1.377 3.025-1.377.591 0 1.094.0885 1.559.2527.935.3537 1.537 1.0434 1.754 2.1399h-1.445c-.134-.7579-.748-1.1874-1.86-1.1874-1.312 0-2.1.5078-2.1 1.8064v.0152c0 1.2278.743 1.7483 2.039 1.7483 1.279 0 1.807-.4851 1.938-1.3643h1.451c-.081.5381-.25.9904-.526 1.3719zm.023 4.7245c0 .7933-.116 1.4274-.361 1.9201-.503.9727-1.416 1.3795-2.699 1.3795-.672 0-1.223-.1087-1.686-.326-.914-.4396-1.392-1.3718-1.392-2.9736v-2.5467h1.413v2.5063c0 .5078.058.9145.186 1.2177.256.5988.761.8413 1.494.8413.374 0 .667-.0631.915-.1945.492-.2476.73-.8211.73-1.8645v-2.5063h1.4zm1.271-9.3657h1.352v4.4264h3.778v1.2683h-5.13zm-1.329-7.20298-13.951 13.95378 13.951 13.9487 13.951-13.9487z"/><path d="m199.235 24.1331c.405-.0631.648-.2264.648-.6162v-.0344c0-.2064-.049-.3497-.141-.4586-.19-.1749-.594-.2093-1.284-.2093h-1.957v1.3529h2.001c.284 0 .515-.0086.733-.0344z"/></g></svg>